<svg width="22" height="22" viewBox="0 0 22 22" fill="none" xmlns="http://www.w3.org/2000/svg">
<path d="M6.15008 15.6532L4.21325 14.5861L4.41597 14.3834L6.13525 14.6178L6.38099 14.6513L6.55637 14.476L9.66762 11.3647L10.1504 10.8819L9.54439 10.5673L4.27028 7.83013L4.72427 7.37615L11.7501 8.95336L12.0186 9.01364L12.2132 8.81906L15.3245 5.7078C15.6032 5.4291 16.0396 5.43295 16.3032 5.69664C16.5669 5.96032 16.5708 6.39673 16.2921 6.67542L13.1808 9.78668L12.9862 9.98126L13.0465 10.2498L14.6238 17.2756L14.1698 17.7296L11.4326 12.4555L11.1181 11.8494L10.6352 12.3323L7.52396 15.4435L7.34859 15.6189L7.3821 15.8647L7.61655 17.5839L7.41383 17.7867L6.34673 15.8499L6.27687 15.7231L6.15008 15.6532Z" fill="#3E4C59" stroke="#3E4C59"/>
</svg>
