<svg width="14" height="15" viewBox="0 0 14 15" fill="none" xmlns="http://www.w3.org/2000/svg">
<path d="M3.15008 11.6532L1.21325 10.5861L1.41597 10.3834L3.13525 10.6178L3.38099 10.6513L3.55637 10.476L6.66762 7.36469L7.15044 6.88188L6.54439 6.56735L1.27028 3.83013L1.72427 3.37615L8.75013 4.95336L9.01863 5.01364L9.21321 4.81906L12.3245 1.7078C12.6032 1.4291 13.0396 1.43295 13.3032 1.69664C13.5669 1.96032 13.5708 2.39673 13.2921 2.67542L10.1808 5.78668L9.98625 5.98126L10.0465 6.24975L11.6238 13.2756L11.1698 13.7296L8.43259 8.45549L8.11806 7.84944L7.63524 8.33226L4.52396 11.4435L4.34859 11.6189L4.3821 11.8647L4.61655 13.5839L4.41383 13.7867L3.34673 11.8499L3.27687 11.7231L3.15008 11.6532Z" fill="#3E4C59" stroke="#3E4C59"/>
</svg>
