<svg width="18" height="14" viewBox="0 0 18 14" fill="none" xmlns="http://www.w3.org/2000/svg">
<path d="M10.4135 0.810006C10.4135 0.363367 10.0502 0 9.60354 0H8.39485C7.94821 0 7.58484 0.363367 7.58484 0.810006V2.02101H10.4135V0.810006Z" fill="#3E4C59"/>
<path d="M9.11541 5.06934L13.8106 6.29615V3.26843C13.8106 3.09901 13.6728 2.96118 13.5034 2.96118H4.49023C4.32081 2.96118 4.18298 3.09901 4.18298 3.26843V6.29615L8.8782 5.06934C8.95593 5.04904 9.03764 5.04904 9.11541 5.06934Z" fill="#3E4C59"/>
<path d="M16.5394 13.0551C16.0215 13.0551 15.7879 12.9388 15.4921 12.7915C15.3532 12.7223 15.2068 12.6494 15.0321 12.5873C14.7895 12.5011 14.4922 12.4357 14.0848 12.43L15.8028 8.10518C15.8408 8.00248 15.8104 7.91698 15.7887 7.87497C15.7669 7.83262 15.7142 7.75739 15.6069 7.72933L9.00049 6.00317L2.39416 7.72933C2.28674 7.75739 2.23409 7.83262 2.21229 7.87497C2.19061 7.91702 2.16017 8.0026 2.19831 8.10533L3.91245 12.43C3.50522 12.4362 3.20823 12.502 2.9658 12.5885C2.79253 12.6504 2.64704 12.7228 2.50906 12.7915C2.21323 12.9388 1.97959 13.0552 1.46166 13.0552C1.20252 13.0552 0.992432 13.2652 0.992432 13.5244C0.992432 13.7835 1.20252 13.9936 1.46166 13.9936C2.20028 13.9936 2.58654 13.8013 2.92732 13.6316C3.06012 13.5655 3.18052 13.5058 3.31956 13.4598C3.49033 13.4034 3.68925 13.368 3.97473 13.368C4.03989 13.368 4.10051 13.3698 4.15738 13.3734C4.5524 13.3978 4.76352 13.5029 5.02213 13.6316C5.36291 13.8013 5.74918 13.9936 6.4878 13.9936C7.22639 13.9936 7.61262 13.8013 7.95344 13.6316C8.24923 13.4844 8.48288 13.368 9.00074 13.368C9.51861 13.368 9.75222 13.4843 10.048 13.6316C10.3888 13.8013 10.775 13.9936 11.5136 13.9936C12.2522 13.9936 12.6385 13.8013 12.9792 13.6316C13.2387 13.5025 13.4503 13.3972 13.8477 13.3732C13.9035 13.3698 13.9628 13.368 14.0265 13.368C14.3089 13.368 14.5065 13.4028 14.676 13.4581C14.8174 13.5042 14.9393 13.5647 15.0738 13.6316C15.4146 13.8013 15.8008 13.9936 16.5394 13.9936C16.7986 13.9936 17.0087 13.7835 17.0087 13.5244C17.0087 13.2653 16.7985 13.0551 16.5394 13.0551ZM4.66245 8.40448L8.88187 7.30199C8.95964 7.28169 9.04135 7.28169 9.11911 7.30199L13.3385 8.40448C13.5893 8.46998 13.7394 8.72637 13.6739 8.97709C13.6188 9.18805 13.4285 9.32782 13.2203 9.32782C13.181 9.32782 13.1411 9.32284 13.1013 9.31246L9.00049 8.24097L4.89969 9.31246C4.64897 9.37796 4.39259 9.22781 4.32708 8.97709C4.26158 8.72637 4.41173 8.46998 4.66245 8.40448Z" fill="#3E4C59"/>
</svg>
