<svg width="24" height="24" viewBox="0 0 24 24" fill="none" xmlns="http://www.w3.org/2000/svg">
<g clip-path="url(#clip0_0_2438)">
<path d="M14.1166 2.72591C14.1166 2.05661 13.5721 1.51208 12.9028 1.51208H11.0915C10.4222 1.51208 9.87769 2.05661 9.87769 2.72591V4.54065H14.1166V2.72591Z" fill="#3E4C59" fill-opacity="0.4"/>
<path d="M12.1721 9.10765L19.2081 10.9461V6.40891C19.2081 6.15503 19.0016 5.94849 18.7477 5.94849H5.24112C4.98724 5.94849 4.7807 6.15503 4.7807 6.40891V10.9461L11.8167 9.10765C11.9332 9.07723 12.0556 9.07723 12.1721 9.10765Z" fill="#3E4C59" fill-opacity="0.4"/>
<path d="M23.2967 21.0762C22.5207 21.0762 22.1706 20.9018 21.7274 20.6811C21.5193 20.5775 21.2998 20.4682 21.038 20.3752C20.6744 20.2459 20.2289 20.1479 19.6185 20.1393L22.1929 13.6585C22.2499 13.5046 22.2044 13.3765 22.1719 13.3135C22.1392 13.25 22.0603 13.1373 21.8993 13.0953L11.9994 10.5085L2.09957 13.0953C1.9386 13.1373 1.8597 13.25 1.82703 13.3135C1.79455 13.3765 1.74893 13.5048 1.80608 13.6587L4.37478 20.1394C3.76454 20.1486 3.31949 20.2473 2.9562 20.377C2.69655 20.4696 2.47852 20.5782 2.27175 20.6811C1.82844 20.9018 1.47831 21.0762 0.702175 21.0762C0.313848 21.0762 -0.000976562 21.391 -0.000976562 21.7794C-0.000976562 22.1677 0.313848 22.4825 0.702175 22.4825C1.80903 22.4825 2.38786 22.1943 2.89854 21.9401C3.09753 21.841 3.27796 21.7515 3.48633 21.6827C3.74223 21.5981 4.04032 21.545 4.46812 21.545C4.56576 21.545 4.65661 21.5478 4.74183 21.5531C5.33379 21.5897 5.65016 21.7472 6.03769 21.9401C6.54837 22.1944 7.1272 22.4826 8.23406 22.4826C9.34086 22.4826 9.91965 22.1944 10.4304 21.9401C10.8736 21.7194 11.2238 21.545 11.9998 21.545C12.7759 21.545 13.1259 21.7194 13.5692 21.9401C14.0799 22.1944 14.6587 22.4826 15.7655 22.4826C16.8723 22.4826 17.4511 22.1944 17.9617 21.9401C18.3505 21.7466 18.6677 21.5887 19.2632 21.5528C19.3468 21.5478 19.4357 21.545 19.5312 21.545C19.9543 21.545 20.2505 21.5971 20.5044 21.68C20.7163 21.7492 20.899 21.8398 21.1006 21.9401C21.6112 22.1944 22.19 22.4826 23.2968 22.4826C23.6852 22.4826 24 22.1677 24 21.7794C24 21.3911 23.6851 21.0762 23.2967 21.0762ZM5.4987 14.107L11.8217 12.4549C11.9382 12.4244 12.0607 12.4244 12.1772 12.4549L18.5002 14.107C18.8759 14.2052 19.1009 14.5894 19.0027 14.9651C18.9201 15.2812 18.635 15.4907 18.3229 15.4907C18.2641 15.4907 18.2043 15.4832 18.1447 15.4676L11.9994 13.862L5.85422 15.4676C5.4785 15.5658 5.0943 15.3408 4.99614 14.9651C4.89798 14.5894 5.12298 14.2052 5.4987 14.107Z" fill="#3E4C59" fill-opacity="0.4"/>
</g>
<defs>
<clipPath id="clip0_0_2438">
<rect width="24" height="24" fill="white"/>
</clipPath>
</defs>
</svg>
