<svg width="14" height="18" viewBox="0 0 14 18" fill="none" xmlns="http://www.w3.org/2000/svg">
<path d="M13.3321 14.3316V11.741C13.3321 11.1844 12.8897 10.7331 12.3441 10.7331H12.0859V1.27533C12.0859 1.19073 12.0442 1.11178 11.9751 1.06514L11.348 0.642284C11.1838 0.531574 10.9648 0.651673 10.9648 0.852477V3.88999L10.778 3.37572C10.5266 2.68406 9.87995 2.22503 9.15688 2.22503H4.8393C4.11197 2.22503 3.46244 2.68939 3.21421 3.38684L3.03513 3.88999V0.852477C3.03513 0.6517 2.81618 0.531574 2.65196 0.642284L2.02484 1.06511C1.95566 1.11175 1.91403 1.1907 1.91403 1.27531V10.7331H1.65579C1.11018 10.7331 0.667861 11.1844 0.667861 11.741V14.3316H0.246963C0.110566 14.3316 0 14.4444 0 14.5836V15.9765C0 16.1157 0.110566 16.2285 0.246963 16.2285H1.31247V16.8962C1.31247 17.1745 1.53363 17.4001 1.80645 17.4001H3.1154C3.38822 17.4001 3.60938 17.1745 3.60938 16.8962V16.2285H10.3906V16.8962C10.3906 17.1745 10.6118 17.4001 10.8846 17.4001H12.1935C12.4664 17.4001 12.6875 17.1745 12.6875 16.8962V16.2285H13.753C13.8894 16.2285 14 16.1157 14 15.9765V14.5836C14 14.4444 13.8894 14.3316 13.753 14.3316L13.3321 14.3316ZM3.36236 5.29353H10.6376V7.7762H3.36236V5.29353ZM3.19319 13.6265H2.34943C2.09163 13.6265 1.88263 13.4133 1.88263 13.1503V13.1382C1.88263 12.8752 2.09163 12.662 2.34943 12.662H3.19317C3.45097 12.662 3.65997 12.8752 3.65997 13.1382V13.1503C3.66 13.4133 3.451 13.6265 3.19319 13.6265ZM8.67899 13.7669H5.32096C5.04813 13.7669 4.82698 13.5413 4.82698 13.263V10.07C4.82698 9.79174 5.04813 9.56612 5.32096 9.56612H8.67899C8.95178 9.56612 9.17294 9.79177 9.17294 10.07V13.263C9.17297 13.5413 8.95178 13.7669 8.67899 13.7669ZM11.6505 13.6265H10.8068C10.549 13.6265 10.3399 13.4133 10.3399 13.1503V13.1382C10.3399 12.8752 10.549 12.662 10.8068 12.662H11.6505C11.9083 12.662 12.1173 12.8752 12.1173 13.1382V13.1503C12.1173 13.4133 11.9083 13.6265 11.6505 13.6265ZM8.60389 11.4103H5.38815C5.25309 11.4103 5.14363 11.2987 5.14363 11.1609V11.1558C5.14363 11.018 5.25309 10.9064 5.38815 10.9064H8.60389C8.73894 10.9064 8.8484 11.018 8.8484 11.1558V11.1609C8.8484 11.2987 8.73894 11.4103 8.60389 11.4103ZM8.60389 10.4024H5.38815C5.25309 10.4024 5.14363 10.2908 5.14363 10.153V10.1479C5.14363 10.0102 5.25309 9.89853 5.38815 9.89853H8.60389C8.73894 9.89853 8.8484 10.0102 8.8484 10.1479V10.153C8.8484 10.2908 8.73894 10.4024 8.60389 10.4024ZM8.60389 13.4261H5.38815C5.25309 13.4261 5.14363 13.3144 5.14363 13.1766V13.1716C5.14363 13.0338 5.25309 12.9221 5.38815 12.9221H8.60389C8.73894 12.9221 8.8484 13.0338 8.8484 13.1716V13.1766C8.8484 13.3144 8.73894 13.4261 8.60389 13.4261ZM8.60389 12.4182H5.38815C5.25309 12.4182 5.14363 12.3065 5.14363 12.1688V12.1637C5.14363 12.026 5.25309 11.9143 5.38815 11.9143H8.60389C8.73894 11.9143 8.8484 12.026 8.8484 12.1637V12.1688C8.8484 12.3065 8.73894 12.4182 8.60389 12.4182Z" fill="#3E4C59"/>
</svg>
